<svg id="Layer_1" data-name="Layer 1" xmlns="http://www.w3.org/2000/svg" viewBox="0 0 245.43 78.91"><defs><style>.cls-1{fill:#a58965;}.cls-1,.cls-3{stroke:#606161;stroke-miterlimit:10;}.cls-2{fill:#40403f;}.cls-3{fill:none;}</style></defs><title>logo1</title><rect class="cls-1" x="0.5" y="0.5" width="215.13" height="61.41"/><path class="cls-2" d="M58.19,7.93h5.39L62,9.46v4.95c.17,0,.38.05.62.07V9.57l1.25-1.24.23.21L62.93,9.71v4.78l.38,0c.59.05,1.16.08,1.71.08a15.24,15.24,0,0,0,2.06-.12V9.21l-1.4-1.28H71L69.39,9.46v12l1.39,1.24H65.5l1.58-1.35V16.44a8.8,8.8,0,0,1-2,.23,19.5,19.5,0,0,1-2-.1h-.17v4.85l1.9,2.18H58.9l-.3-.31h5.6l-1.56-1.71V16.29l.33,0q1.52.12,2.19.12a5.61,5.61,0,0,0,1.92-.3v-.41a17,17,0,0,1-2.52.16,10.23,10.23,0,0,1-1.12,0l-1.16-.1-.26,0v5.69l1.47,1.24h-5.3l1.53-1.35v-5a1.81,1.81,0,0,0-1.53.76l-.25-.12A2.51,2.51,0,0,1,59.72,16v-.42a2.43,2.43,0,0,0-2,1l-.17-.12a3,3,0,0,1,2.2-2V9.33Zm13.27.64L70.29,9.71v11.7l1.9,2.18h-6L66,23.28h5.59L70,21.54V9.59l1.27-1.26Z"/><path class="cls-2" d="M72.66,7.93H78.1L76.56,9.49V21.43L78,22.65H72.66l1.6-1.32v-12Zm6,.65L77.44,9.74V21.43l1.93,2.16h-6l-.29-.31h5.57l-1.57-1.74V9.64l1.3-1.29Z"/><path class="cls-2" d="M79.93,7.93H85.3L83.71,9.44v6.93l.63-.72V9.54l1.28-1.25.17.25L84.61,9.68v5.61l3.56-4.24a2.72,2.72,0,0,0,.77-1.65,1.13,1.13,0,0,0-.44-.83,2.19,2.19,0,0,0-1-.53V7.93h6V8a8.93,8.93,0,0,0-4.28,3.24l-1.59,1.89,4.23,8.23,1.93,1.25h-6l1.51-1.13-2.85-5.69-1.87,2.29V21.4l1.87,2.19H80.6l-.31-.31h5.5l-1.45-1.76V18l2-2.46-.25-.5-2.37,2.82V21.4l1.39,1.25H79.84l1.57-1.35v-12ZM94.06,9a5.21,5.21,0,0,0-3.38,2l-2,2.22,4,8.22L96,23.59h-7.3l-.32-.31H95l-2.44-1.67-4.2-8.43,2.14-2.41a5.47,5.47,0,0,1,3.45-2Z"/><path class="cls-2" d="M108.17,7.93l-.18.22a11.38,11.38,0,0,0-1.86,3.29c-.08-.18-.13-.31-.17-.39a3.76,3.76,0,0,0-1.35-1.78,5.86,5.86,0,0,0-2.6-.4c-.57,0-1.26,0-2.06.06V14.2h.73V9.54a16.2,16.2,0,0,1,1.67-.08,5.68,5.68,0,0,1,2.14.3A2.89,2.89,0,0,1,105.72,11l-.23-.17a5.56,5.56,0,0,0-1.34-.87,5.83,5.83,0,0,0-1.63-.14c-.25,0-.68,0-1.31,0l-.24,0V14.2h2.11l1.48-2v5l-1.48-1.92H100v6.44h.73v-5.9h2.49l.3.3H101v5.6a11.28,11.28,0,0,0,3.33-.34,2.75,2.75,0,0,0,1.54-1.3l.61-1.05s.07-.13.14-.25a7.75,7.75,0,0,0,.74,2,9.3,9.3,0,0,0,1.46,1.77H95.93l1.75-1.34V16a4.19,4.19,0,0,0-1.75.6l-.16-.25a4.17,4.17,0,0,1,1.91-.65V15.2l-.28,0a3.13,3.13,0,0,0-2.13.86,2.3,2.3,0,0,1,2.41-1.84V9.31L95.93,7.93Zm1.93,14.62-.6,1H97l-.19-.31h12.56l.39-.73a8.8,8.8,0,0,1-2.32-3.25l.36.13a9.28,9.28,0,0,0,2.14,2.94Zm-4.75-10v5.07l-.29-.15V12.4Zm3.37-3.82-.08.11A13.77,13.77,0,0,0,106.77,12l-.19-.24a13.53,13.53,0,0,1,2-3.26Z"/><path class="cls-2" d="M129,7.93l-.13.26-.78,1.38a10,10,0,0,0-.75,1.84l0,.05-.12-.08,0-.15a3.38,3.38,0,0,0-1-1.81,2.88,2.88,0,0,0-1.87-.5c-.35,0-.69,0-1,0h-.13V21.4l1.35,1.25h-5.24l1.6-1.35V9.89h-.81a2.43,2.43,0,0,0-1.68.46,2.48,2.48,0,0,0-.59,1.64h-.3a2.88,2.88,0,0,1,.69-1.87,2.74,2.74,0,0,1,1.88-.53h.81V9A8.7,8.7,0,0,0,119.78,9a3.08,3.08,0,0,0-2.13.6,2.89,2.89,0,0,0-.73,2h-.13A21.5,21.5,0,0,0,115.26,8l-.07-.11Zm-2.34,2.51a3.7,3.7,0,0,0-2.06-.57l-.55,0,0,11.53,1.83,2.16h-5.86l-.27-.31h5.5l-1.54-1.76V9.57h.62a4.86,4.86,0,0,1,1.58.18A1.28,1.28,0,0,1,126.66,10.44Zm3.07-1.79A13.14,13.14,0,0,0,128.06,12l0,.12-.26-.22,0-.1a11,11,0,0,1,1.64-3.31l.06-.07Z"/><path class="cls-2" d="M130.08,7.93h5.39l-1.56,1.53v4.95l.62.07V9.57l1.25-1.24.23.21-1.18,1.17v4.78l.38,0c.59.05,1.16.08,1.71.08a15.08,15.08,0,0,0,2.05-.12V9.21l-1.4-1.28h5.3l-1.58,1.53v12l1.39,1.24H137.4L139,21.3V16.44a8.65,8.65,0,0,1-2,.23,19.69,19.69,0,0,1-2-.1h-.16v4.85l1.89,2.18h-5.93l-.3-.31h5.6l-1.56-1.71V16.29l.33,0q1.51.12,2.19.12a5.53,5.53,0,0,0,1.92-.3v-.41a16.9,16.9,0,0,1-2.51.16,10.45,10.45,0,0,1-1.13,0l-1.15-.1-.27,0v5.69l1.47,1.24h-5.3l1.54-1.35v-5a1.82,1.82,0,0,0-1.54.76l-.24-.12a2.49,2.49,0,0,1,1.78-.93v-.42a2.41,2.41,0,0,0-2,1l-.17-.12a2.93,2.93,0,0,1,2.2-2V9.33Zm13.27.64-1.17,1.14v11.7l1.91,2.18h-6l-.28-.31h5.58l-1.53-1.74V9.59l1.27-1.26Z"/><path class="cls-2" d="M157,7.93l-.18.22A11.38,11.38,0,0,0,155,11.44c-.08-.18-.14-.31-.17-.39a3.77,3.77,0,0,0-1.36-1.78,5.78,5.78,0,0,0-2.59-.4c-.57,0-1.26,0-2.06.06V14.2h.73V9.54a16.14,16.14,0,0,1,1.66-.08,5.74,5.74,0,0,1,2.15.3A2.89,2.89,0,0,1,154.54,11a2.76,2.76,0,0,1-.23-.17A5.38,5.38,0,0,0,153,9.93a5.7,5.7,0,0,0-1.62-.14c-.25,0-.69,0-1.31,0l-.24,0V14.2h2.11l1.48-2v5L151.9,15.2h-3.13v6.44h.73v-5.9H152l.3.3h-2.5v5.6a11.16,11.16,0,0,0,3.32-.34,2.74,2.74,0,0,0,1.55-1.3l.61-1.05.14-.25a7.41,7.41,0,0,0,.74,2,9.3,9.3,0,0,0,1.46,1.77H144.75l1.74-1.34V16a4.15,4.15,0,0,0-1.74.6l-.16-.25a4.17,4.17,0,0,1,1.9-.65V15.2l-.27,0a3.13,3.13,0,0,0-2.13.86,2.3,2.3,0,0,1,2.4-1.84V9.31l-1.74-1.38Zm1.93,14.62-.6,1H145.79l-.18-.31h12.56l.39-.73a8.83,8.83,0,0,1-2.33-3.25l.37.13a9.4,9.4,0,0,0,2.13,2.94Zm-4.75-10v5.07l-.29-.15V12.4Zm3.37-3.82-.08.11A13.41,13.41,0,0,0,155.59,12l-.19-.24a13.53,13.53,0,0,1,2-3.26Z"/><path class="cls-2" d="M9,37.5a11.47,11.47,0,0,1,5.85-1.58,7.12,7.12,0,0,1,4,1.06,3.13,3.13,0,0,1,1.57,2.68,3.22,3.22,0,0,1-1,2.36,6.13,6.13,0,0,1-2.82,1.49,20.39,20.39,0,0,0,2.15,4.24,13.93,13.93,0,0,0,2.72,3.17l-.17,0a15.3,15.3,0,0,0-3.35,1.65l-.17.12-.06-.37a32.83,32.83,0,0,0-2.05-7.52l-.05-.12a8.19,8.19,0,0,1-2.12.59H13.4v4.29l2,2.16H9.49l-.18-.31h5.46L13.1,49.7V45.08l.24,0a7.68,7.68,0,0,0,2.19-.51c0-.1-.07-.15-.08-.18L15.34,44l-.06-.14a19.56,19.56,0,0,1-2.68.45l-.13,0v5.12l1.31,1.37H8.71l1.49-1.37V45.62h-.09A12.18,12.18,0,0,0,8.9,46l-.09,0-.1-.22c.34-.13.6-.22.79-.27l.61-.15.09,0v-.6a6.21,6.21,0,0,0-1.69.3l-.12,0a4.46,4.46,0,0,1,.23-.75s.07-.2.16-.51a.81.81,0,0,0,0-.11c.35,0,.61,0,.81,0a3.48,3.48,0,0,0,.57,0V38.07a6.9,6.9,0,0,0-1.09-.54Zm3.46-.3v6.18a3.21,3.21,0,0,0,.63-.06V37.68a5.64,5.64,0,0,1,1.52-.17,3.15,3.15,0,0,1,3,1.47,6.13,6.13,0,0,0-1.5-.95,4.11,4.11,0,0,0-1.53-.26,5,5,0,0,0-1.23.14v5.41l.13,0A7.57,7.57,0,0,0,16.88,42,2.86,2.86,0,0,0,18,39.69a2.65,2.65,0,0,0-1-2.11,3.76,3.76,0,0,0-2.49-.83A4.2,4.2,0,0,0,12.47,37.2ZM18,44.08a13.76,13.76,0,0,0,2.56,4.62,12.06,12.06,0,0,0,2.9,2.54,17.83,17.83,0,0,0-4.93,2.13l-.1.07-.23-.18a16.47,16.47,0,0,1,4.66-2.12,14.38,14.38,0,0,1-5.19-7l-.07-.19q3.51-1.33,3.51-4.06a4.44,4.44,0,0,0-.91-2.46,3.46,3.46,0,0,1,1.16,2.69Q21.37,42.72,18,44.08Z"/><path class="cls-2" d="M29.83,36a5.38,5.38,0,0,1,4.45,2.11A8.87,8.87,0,0,1,36,43.72a8.09,8.09,0,0,1-1.65,5.33,5.44,5.44,0,0,1-4.42,2,6,6,0,0,1-3.9-1.4,7.46,7.46,0,0,1-2.51-6.11A8.26,8.26,0,0,1,25.19,38,5.76,5.76,0,0,1,29.83,36Zm0,1Q25.95,37,26,43.77q0,6.3,3.82,6.3a3,3,0,0,0,2.71-1.67,10.36,10.36,0,0,0,.92-4.88c0-2.43-.29-4.12-.89-5.07A3,3,0,0,0,29.83,37Zm3.65-.41a5.67,5.67,0,0,1,2.6,2.71,9.89,9.89,0,0,1,1,4.43,9.05,9.05,0,0,1-1.88,6,6.05,6.05,0,0,1-4.92,2.27,5.82,5.82,0,0,1-3.65-1.31v-.06a5.92,5.92,0,0,0,3.57,1,5.9,5.9,0,0,0,4.72-2.17,8.24,8.24,0,0,0,1.85-5.54,10.71,10.71,0,0,0-.84-4.39,6.08,6.08,0,0,0-2.4-2.81Zm-1.2,2.13-.19-.12a4.33,4.33,0,0,0-2-.61q-3,0-3,5.93,0,4.34,1.87,5.75l-.1.12a4.51,4.51,0,0,1-1.64-2.14A10.84,10.84,0,0,1,26.69,44q0-6.36,3.35-6.36A2.53,2.53,0,0,1,32.28,38.68Z"/><path class="cls-2" d="M50.11,36.47l-.13.22a31.69,31.69,0,0,0-1.79,3.6l-.1.27-.15-.08a5.07,5.07,0,0,0-1.23-2.77,3.09,3.09,0,0,0-2.33-1A3,3,0,0,0,42,38q-1.23,1.58-1.23,5.36a9.8,9.8,0,0,0,1.13,5.11A3.51,3.51,0,0,0,45,50.28a3.24,3.24,0,0,0,2.56-1.07,5.17,5.17,0,0,0,1.14-3.07q0-.48.39-.48t.45.75a6,6,0,0,1-.5,2.3Q48,51.25,44.62,51.24a5.84,5.84,0,0,1-4.73-2.1,8.52,8.52,0,0,1-1.76-5.66A8.43,8.43,0,0,1,40,38a5.63,5.63,0,0,1,4.53-2.23,8.28,8.28,0,0,1,2.93.63,4.16,4.16,0,0,0,1.42.33,1.87,1.87,0,0,0,1.09-.33Zm.41,9.87a6.7,6.7,0,0,1-1.59,4.33A5.16,5.16,0,0,1,45,52.15,6,6,0,0,1,41.43,51v-.09a6.34,6.34,0,0,0,3.55,1,5,5,0,0,0,3.7-1.45,4.7,4.7,0,0,0,1-1.6,8.62,8.62,0,0,0,.44-2.34l0-.26Zm-3.74-7.88a3.22,3.22,0,0,0-2-.84q-3,0-3,5.67a11.55,11.55,0,0,0,.68,4.29,3.67,3.67,0,0,0,1.94,2.22v.12a3.22,3.22,0,0,1-2.16-2.08,11.25,11.25,0,0,1-.81-4.58q0-5.92,3.26-5.93a2.78,2.78,0,0,1,2,1ZM50.94,37l-.12.21a34.64,34.64,0,0,0-2,3.89L48.51,41l.13-.28c.38-.81.72-1.47,1-2l.91-1.63.12-.21Z"/><path class="cls-2" d="M51.81,36.12h5.37l-1.59,1.51v6.93l.63-.72V37.72l1.28-1.25.18.26-1.19,1.14v5.61l3.56-4.24a2.72,2.72,0,0,0,.77-1.65,1.13,1.13,0,0,0-.44-.83,2.19,2.19,0,0,0-1.05-.53v-.11h6v.11q-2,.48-4.28,3.24L59.5,41.36l4.23,8.22,1.93,1.26H59.71l1.5-1.13L58.36,44,56.49,46.3v3.28l1.87,2.2H52.48l-.31-.31h5.51l-1.46-1.76V46.16l2-2.46L58,43.2,55.59,46v3.56L57,50.84H51.72l1.57-1.35v-12Zm14.14,1a5.21,5.21,0,0,0-3.39,2l-2,2.22,4,8.21,3.25,2.2h-7.3l-.32-.31h6.64L64.43,49.8l-4.2-8.43L62.37,39a5.47,5.47,0,0,1,3.45-2Z"/><path class="cls-2" d="M83.66,32.08l.06.09-.11.13a24.22,24.22,0,0,0-3.38,4.34c-.35.55-.59,1-.74,1.19l-4.27,6.82v4.66l1.67,1.53H71.3L73,49.31V44.65L70.2,40.42l-.6-1a15.05,15.05,0,0,0-1.33-1.86,12.89,12.89,0,0,0-1.54-1.39l-.13-.1h5.79L71,37.6l3.82,5.76.37-.59L71.75,37.6,73,36.45l.24.19-1,1,3.18,4.9,2.57-4A5.88,5.88,0,0,0,79,35.81a2.61,2.61,0,0,0-1-1.68,22,22,0,0,0,5.48-2Zm.51.69v.47l-.11.11a15.23,15.23,0,0,0-1.66,1.84c-.46.61-1.15,1.64-2.06,3.09l-4.15,6.53v4.5l2,2.47H71.05l-.14-.31h6.71l-1.74-2.16V44.73l4.23-6.67L80.78,37A18.62,18.62,0,0,1,84.17,32.77Z"/><path class="cls-2" d="M104,36.12l-1.58,1.59V49.49l1.41,1.35H98.58l1.59-1.35V41.77l-3.63,10h-1.1l-.1-.31h1l3.83-10.67V39L95.91,50.82H95.1L92,41.57v6.07a6.27,6.27,0,0,0,.16,1.72,3.09,3.09,0,0,0,.76,1.11l1,1.31h-6l-.21-.31h5.64l-.43-.63H87.8l.24-.13a4.2,4.2,0,0,0,1.68-1.42,4.8,4.8,0,0,0,.4-2.26V37.54l-1.51-1.42h5.93l-1.66,1.5,3.24,9.6.42-1L93.6,37.71l1.5-1.11.24.2-1.43,1,2.73,8,3-8.18-1.4-1.5ZM91,38.84v8.23a6.49,6.49,0,0,0,.36,2.61,2.24,2.24,0,0,0,1.5,1l-.1-.17a2.57,2.57,0,0,1-1.13-2.25V40.66ZM104.66,37l-1.3.93V49.5l2,2.28H99.27l-.16-.31h5.55l-1.6-1.8V37.75l1.36-.93Z"/><path class="cls-2" d="M112.18,36a5.39,5.39,0,0,1,4.46,2.11,8.87,8.87,0,0,1,1.67,5.64,8.09,8.09,0,0,1-1.65,5.33,5.45,5.45,0,0,1-4.42,2,6,6,0,0,1-3.9-1.4,7.43,7.43,0,0,1-2.51-6.11A8.26,8.26,0,0,1,107.55,38,5.74,5.74,0,0,1,112.18,36Zm0,1c-2.58,0-3.88,2.27-3.88,6.81,0,4.2,1.28,6.3,3.82,6.3a3,3,0,0,0,2.71-1.67,10.23,10.23,0,0,0,.93-4.88c0-2.43-.3-4.12-.89-5.07A3,3,0,0,0,112.18,37Zm3.66-.41a5.65,5.65,0,0,1,2.59,2.71,9.76,9.76,0,0,1,1,4.43,9.05,9.05,0,0,1-1.88,6,6.06,6.06,0,0,1-4.93,2.27,5.8,5.8,0,0,1-3.64-1.31v-.06a6.39,6.39,0,0,0,8.29-1.13,8.24,8.24,0,0,0,1.85-5.54,10.71,10.71,0,0,0-.85-4.39,6.06,6.06,0,0,0-2.39-2.81Zm-1.2,2.13-.2-.12a4.3,4.3,0,0,0-2-.61q-3,0-3,5.93,0,4.34,1.87,5.75l-.11.12a4.49,4.49,0,0,1-1.63-2.14,10.58,10.58,0,0,1-.49-3.59q0-6.36,3.35-6.36A2.55,2.55,0,0,1,114.64,38.68Z"/><path class="cls-2" d="M133.57,36.12l-2,1.64v7.41a22.54,22.54,0,0,1-.13,2.94,3.5,3.5,0,0,1-.52,1.46c-.66,1-1.94,1.47-3.83,1.47s-3.41-.49-4.2-1.47c-.64-.77-1-2.25-1-4.44V37.52l-1.56-1.4h5.41l-1.56,1.52v7.51l0,1.76a3.41,3.41,0,0,0,.71,2.43,3.31,3.31,0,0,0,2.4.72A2.83,2.83,0,0,0,129.87,49a8.26,8.26,0,0,0,.56-3.79l0-7.42-1.79-1.64Zm.39.78-1.56,1.3v7.12a11.83,11.83,0,0,1-.55,4.56Q130.73,52,127.46,52a5.77,5.77,0,0,1-4.24-1.41l.09,0,.4.23a7.1,7.1,0,0,0,3.62.83q3.17,0,4.2-2a11,11,0,0,0,.55-4.33V38.06l1.71-1.4Zm-7.74-.16-1.12,1.13v9.32l.35,1.45a4.64,4.64,0,0,0,1,1.06l0,.1a2.44,2.44,0,0,1-1.33-1.13,5.58,5.58,0,0,1-.37-2.31v-8.6l1.3-1.26Z"/><path class="cls-2" d="M147.76,36.12a4.55,4.55,0,0,0-1.68,1.24A4.73,4.73,0,0,0,145.5,40V50.84h-1.94l-5.41-10.51v6.74l.14,1.65a2.52,2.52,0,0,0,1,1.7l.09.08c-1-.35-1.58-1.48-1.58-3.38V39.77l-.62-1.21v6.61a13.08,13.08,0,0,0,.41,4.12,2.8,2.8,0,0,0,1.94,1.42l1,1.07h-6.22l-.18-.31h5.75l-.6-.63H134a3.21,3.21,0,0,0,1.85-1.36,6.53,6.53,0,0,0,.46-2.91V37.39l-1.52-1.27h5.8l-1.63,1.09L144.49,48V46.66l-4.76-9.27,1.61-1.09.22.22-1.43,1L144.49,46v-6a7.33,7.33,0,0,0-.32-2.67,3.33,3.33,0,0,0-1.61-1.29Zm.4.85-.2.34a1.75,1.75,0,0,0-1.2.76,4.09,4.09,0,0,0-.32,1.88V51.78H144l-.15-.31h2.3V40.06a4.37,4.37,0,0,1,.42-2.25A2.32,2.32,0,0,1,148.16,37Z"/><path class="cls-2" d="M161.57,36.12l-.13.26-.78,1.38a10.15,10.15,0,0,0-.75,1.83l0,.06-.12-.08,0-.15a3.38,3.38,0,0,0-1-1.81,2.88,2.88,0,0,0-1.87-.5c-.35,0-.69,0-1,0h-.13V49.58l1.35,1.26h-5.24l1.6-1.35V38.08h-.81a2.43,2.43,0,0,0-1.68.46,2.48,2.48,0,0,0-.59,1.64h-.3a2.88,2.88,0,0,1,.69-1.87,2.74,2.74,0,0,1,1.88-.53h.81v-.56a8.7,8.7,0,0,0-1.11-.07,3.08,3.08,0,0,0-2.13.6,2.87,2.87,0,0,0-.73,2h-.13a21.5,21.5,0,0,0-1.53-3.56l-.07-.11Zm-2.34,2.51a3.7,3.7,0,0,0-2.06-.57l-.55,0,0,11.53,1.83,2.16h-5.86l-.27-.31h5.5l-1.54-1.76v-12h.62a4.86,4.86,0,0,1,1.58.18A1.28,1.28,0,0,1,159.23,38.63Zm3.07-1.79a13,13,0,0,0-1.67,3.35l0,.12-.26-.22,0-.11a11,11,0,0,1,1.64-3.3l.06-.07Z"/><path class="cls-2" d="M173,36.12l-1.2,1.35,1.89,5,.45-.25-1.69-4.52,1.21-1.4.3.13-1.16,1.34,1.61,4.28.16-.13.38-.32a2.63,2.63,0,0,0,.43-.39,8.11,8.11,0,0,0,.92,2.34l-.48,0a2.91,2.91,0,0,0-1.6.34l2.08,5.63L178,50.84h-5.79l1.58-1.34-1.27-3.34a12.29,12.29,0,0,0-1.94,2.42l-.26-.07a14.85,14.85,0,0,1,2-2.52l.1-.11-.22-.5A10.14,10.14,0,0,0,170,48l-.21-.33c-.4-.63-.9-1.36-1.52-2.17l-.12-.13a8.2,8.2,0,0,0-.88,3.18,2.7,2.7,0,0,0,.25,1.23,11.47,11.47,0,0,0,1.18,1.66l.25.33h-6.19l-.23-.31h5.84l-.2-.24a8.14,8.14,0,0,1-1-1.43,3,3,0,0,1-.23-1.2,10.45,10.45,0,0,1,1-3.49l-.5-.53c-.1.25-.23.61-.38,1.08l-.38,1.17a5.13,5.13,0,0,0-.31,1.56,2.26,2.26,0,0,0,.22,1.07,5.75,5.75,0,0,0,.91,1.16,2.39,2.39,0,0,1,.21.22h-5.73a6.86,6.86,0,0,0,2.59-2.29,18.05,18.05,0,0,0,1.9-4.42l0-.17a3.22,3.22,0,0,0-1.76-.63,8.17,8.17,0,0,0,1-2l.19.19.52.48a4.35,4.35,0,0,0,.63.51l.21-.5-.14-.12c-.38-.33-.71-.6-1-.81L166,41l.19-.25a9,9,0,0,1,1.17.93l1.55-4.29-1.21-1.31Zm-3.35,2.35-1.83,4.82a15.6,15.6,0,0,1,1.51,1.76l.52.74.12.15c.07-.07.11-.11.11-.13l.16-.19.13-.15a12.22,12.22,0,0,0-1.87-2.24L170,39.35Zm.51,1.33-1.26,3.33.12.13.47.53a12.62,12.62,0,0,1,1,1.29l.12.17A10.08,10.08,0,0,1,171.73,44Zm6.23,2a12.57,12.57,0,0,0,1.26,2.84l-.28,0-.93-.08c-.42,0-.73-.06-.92-.06h-.23l1.92,5.09,2.55,2.26h-6.64l-.21-.31H179l-2.07-1.83-2-5.4a3.46,3.46,0,0,1,.89-.1,10,10,0,0,1,1.38.1L177,44a9.53,9.53,0,0,1-1-2.45Z"/><path class="cls-2" d="M180.15,36.12h5.44l-1.54,1.56V49.62l1.45,1.22h-5.35l1.6-1.32v-12Zm6,.65-1.17,1.16V49.62l1.92,2.16h-6l-.29-.31h5.58l-1.57-1.74V37.83l1.29-1.29Z"/><path class="cls-2" d="M200.42,36.12a4.55,4.55,0,0,0-1.68,1.24,4.73,4.73,0,0,0-.58,2.62V50.84h-1.94l-5.41-10.51v6.74l.14,1.65a2.52,2.52,0,0,0,1,1.7l.09.08c-1-.35-1.58-1.48-1.58-3.38V39.77l-.62-1.21v6.61a13.08,13.08,0,0,0,.41,4.12,2.8,2.8,0,0,0,1.94,1.42l1,1.07H187l-.18-.31h5.75l-.6-.63h-5.34a3.21,3.21,0,0,0,1.85-1.36,6.53,6.53,0,0,0,.46-2.91V37.39l-1.52-1.27h5.8l-1.63,1.09L197.15,48V46.66l-4.76-9.27L194,36.3l.22.22-1.43,1L197.15,46v-6a7.33,7.33,0,0,0-.32-2.67,3.31,3.31,0,0,0-1.62-1.29Zm.4.85-.2.34a1.75,1.75,0,0,0-1.2.76A4.09,4.09,0,0,0,199.1,40V51.78h-2.46l-.15-.31h2.3V40.06a4.37,4.37,0,0,1,.42-2.25A2.32,2.32,0,0,1,200.82,37Z"/><path class="cls-2" d="M212.21,36.25a8,8,0,0,0-1,1.67,21.36,21.36,0,0,1-.93,2.11l-.05.07a1,1,0,0,1-.07-.2,11,11,0,0,0-.53-1.43,2.88,2.88,0,0,0-.62-.77,3.49,3.49,0,0,0-2.38-.93,3.07,3.07,0,0,0-2,.69,2.13,2.13,0,0,0-.81,1.71c0,1.28,1,2.16,2.9,2.63l1.94.47q4.14,1,4.14,4.37a4.09,4.09,0,0,1-1.42,3.16,5,5,0,0,1-3.5,1.28,12.24,12.24,0,0,1-2.93-.41l-1.34-.33a5.93,5.93,0,0,0-1.34-.19,2.83,2.83,0,0,0-1.44.44l-.1-.16a15.31,15.31,0,0,0,2-4.08l.21.06a4.22,4.22,0,0,0,1.44,2.8,4.82,4.82,0,0,0,3.16,1,3.83,3.83,0,0,0,2.44-.71,2.3,2.3,0,0,0,.9-1.91,2.74,2.74,0,0,0-1.26-2.3,11.1,11.1,0,0,0-3.71-1.19,5.93,5.93,0,0,1-3.15-1.41A4.14,4.14,0,0,1,203.1,37a5,5,0,0,1,3.39-1.13,12.31,12.31,0,0,1,3.13.48,5.43,5.43,0,0,0,1.24.23,2.5,2.5,0,0,0,1.23-.39Zm0,7.31a3.85,3.85,0,0,1,1.56,3.24,4.79,4.79,0,0,1-1.69,3.71A6,6,0,0,1,208,52a9.59,9.59,0,0,1-2.24-.25l-1.84-.45a5.42,5.42,0,0,0-1.37-.16,2.86,2.86,0,0,0-1.21.26l-.13-.33a2.89,2.89,0,0,1,1.21-.28,6.87,6.87,0,0,1,1.57.21l1.77.42a9.46,9.46,0,0,0,2.23.26,5.58,5.58,0,0,0,3.9-1.47,4.57,4.57,0,0,0,1.61-3.53,4.35,4.35,0,0,0-1.24-3.08Zm-9.6-.41.39.22c.26.45,1,.82,2.22,1.12l1.84.46a12.09,12.09,0,0,1,2.51.81,1.92,1.92,0,0,1,.89,1l-.08,0a3.31,3.31,0,0,0-1.12-.87,15,15,0,0,0-2.31-.68,18,18,0,0,1-3.33-1A1.73,1.73,0,0,1,202.61,43.15Zm1.44,3.72a3.91,3.91,0,0,0,2.27,2.92v.09a3.51,3.51,0,0,1-2.58-3ZM209.58,39a3.7,3.7,0,0,0-2.71-1.34,2.16,2.16,0,0,0-1.45.5,1.66,1.66,0,0,0-.57,1.29A2.41,2.41,0,0,0,206,41.2l.09.06-.06.09a2.14,2.14,0,0,1-1.51-2,1.85,1.85,0,0,1,.64-1.46,2.49,2.49,0,0,1,1.68-.56,3.42,3.42,0,0,1,1.72.42A2.52,2.52,0,0,1,209.66,39Zm3.34-2.28-.1.17c-.31.53-.58,1-.8,1.51-.54,1.13-.84,1.75-.91,1.88l-.05.08-.28-.11.05-.1q.33-.77,1-2l.78-1.51.06-.09Z"/><line class="cls-3" x1="0.5" y1="54.69" x2="215.63" y2="54.69"/><text/><line class="cls-3" x1="0.5" y1="29.97" x2="215.63" y2="29.97"/><line class="cls-3" x1="0.5" y1="3.8" x2="215.63" y2="3.8"/><circle class="cls-2" cx="4.62" cy="56.75" r="2.06"/><circle class="cls-2" cx="211.92" cy="3.8" r="2.06"/><circle class="cls-2" cx="211.92" cy="56.75" r="2.06"/><circle class="cls-2" cx="4.62" cy="3.8" r="2.06"/><line class="cls-3" x1="162.46" y1="13.28" x2="215.63" y2="13.28"/><line class="cls-3" x1="0.5" y1="18.27" x2="56.96" y2="18.27"/><line class="cls-3" x1="0.19" y1="47.48" x2="6.58" y2="47.48"/><line class="cls-3" x1="212.43" y1="40.89" x2="215.12" y2="40.89"/></svg>