<svg id="Layer_1" data-name="Layer 1" xmlns="http://www.w3.org/2000/svg" viewBox="0 0 935.75 196.5"><defs><style>.cls-1{fill:#a58965;}.cls-1,.cls-3{stroke:#606161;stroke-miterlimit:10;}.cls-2{fill:#40403f;}.cls-3{fill:none;}</style></defs><title>logo2</title><rect class="cls-1" x="0.75" y="0.5" width="522" height="149"/><path class="cls-2" d="M140.72,18.53H153.8L150,22.23v12a13.35,13.35,0,0,0,1.5.17V22.51l3-3,.56.5-2.87,2.84V34.45l.92.08c1.43.13,2.81.2,4.15.2a39.27,39.27,0,0,0,5-.28V21.65l-3.39-3.12h12.85l-3.84,3.7v29l3.37,3h-12.8L162.29,51V39.18a20.75,20.75,0,0,1-4.81.56c-1.56,0-3.18-.09-4.85-.25l-.39,0V51.23l4.6,5.29H142.45l-.73-.75h13.59l-3.79-4.15V38.82l.81,0c2.45.19,4.22.28,5.31.28a13.56,13.56,0,0,0,4.65-.72v-1a41.72,41.72,0,0,1-6.09.39q-1.87,0-2.73-.09l-2.81-.25a5.09,5.09,0,0,0-.64,0v13.8l3.56,3H140.72L144.45,51V38.82a4.45,4.45,0,0,0-3.73,1.83l-.58-.27a5.86,5.86,0,0,1,4.31-2.26v-1a5.84,5.84,0,0,0-4.92,2.37l-.42-.28a7.11,7.11,0,0,1,5.34-4.73V21.92Zm32.2,1.56-2.84,2.75V51.23l4.63,5.29H160.26l-.7-.75h13.56l-3.73-4.21v-29l3.09-3.06Z"/><path class="cls-2" d="M175.85,18.53H189l-3.73,3.78v29l3.51,3h-13l3.86-3.2V22Zm14.44,1.58-2.84,2.82V51.29l4.68,5.23H177.66l-.7-.75h13.53l-3.82-4.21V22.67l3.15-3.11Z"/><path class="cls-2" d="M193.49,18.53h13l-3.87,3.67V39l1.53-1.75V22.42l3.12-3,.41.61-2.86,2.79V36.4l8.63-10.3a6.6,6.6,0,0,0,1.86-4,2.75,2.75,0,0,0-1.06-2,5.24,5.24,0,0,0-2.56-1.26v-.28h14.67v.28Q221.58,20,216,26.65l-3.87,4.6,10.27,20,4.67,3H212.64l3.65-2.73L209.38,37.7l-4.53,5.54v8l4.53,5.32H195.11l-.76-.75h13.36l-3.53-4.26V42.88l4.84-6-.61-1.22-5.76,6.85V51.2l3.37,3H193.27L197.08,51V21.84Zm34.29,2.53q-4.12.29-8.21,4.82l-4.87,5.39,9.82,19.93,7.88,5.32H214.7l-.78-.75H230l-5.93-4L213.92,31.27l5.18-5.84c2.71-3,5.5-4.68,8.37-4.95Z"/><path class="cls-2" d="M262,18.53l-.44.53a27.81,27.81,0,0,0-4.51,8c-.19-.42-.32-.74-.42-.94q-1.53-3.34-3.28-4.32t-6.29-1c-1.39,0-3.06.05-5,.14v12.8h1.78V22.42c1.41-.13,2.76-.19,4-.19a13.48,13.48,0,0,1,5.21.75,7,7,0,0,1,3,2.92c-.26-.18-.45-.32-.56-.41a13.47,13.47,0,0,0-3.25-2.12,15.22,15.22,0,0,0-4-.33c-.59,0-1.65,0-3.17.11l-.58,0V33.75h5.12l3.59-4.92v12l-3.59-4.65h-7.6V51.79h1.78V37.48h6l.72.73h-6.06V51.79a28.08,28.08,0,0,0,8.07-.81,6.75,6.75,0,0,0,3.75-3.17l1.48-2.54c.05-.11.17-.31.33-.61a18.13,18.13,0,0,0,1.8,4.9,22.08,22.08,0,0,0,3.55,4.29h-31.2l4.23-3.23V38.21a10.14,10.14,0,0,0-4.23,1.44l-.39-.58a9.84,9.84,0,0,1,4.62-1.59V36.17l-.67-.05a7.58,7.58,0,0,0-5.18,2.09,5.58,5.58,0,0,1,5.85-4.46V21.87l-4.23-3.34ZM266.69,54l-1.45,2.51H234.85l-.45-.75h30.48l.95-1.76a21.43,21.43,0,0,1-5.65-7.9l.89.33a22.75,22.75,0,0,0,5.17,7.13ZM255.17,29.74V42.05l-.7-.37V29.38Zm8.18-9.26-.19.25a32.58,32.58,0,0,0-4.54,7.65l-.47-.58A32.88,32.88,0,0,1,263,19.89Z"/><path class="cls-2" d="M312.56,18.53c-.17.31-.28.53-.34.64l-1.89,3.34A25.06,25.06,0,0,0,308.52,27l-.06.14-.27-.19-.09-.37a8.13,8.13,0,0,0-2.29-4.39,7.06,7.06,0,0,0-4.55-1.23c-.84,0-1.67,0-2.51.11h-.33V51.2l3.28,3H289l3.9-3.26V23.29l-2,0c-1.91,0-3.27.37-4.07,1.13a5.93,5.93,0,0,0-1.44,4h-.72q.3-3.26,1.68-4.53c.92-.86,2.44-1.28,4.55-1.28l1.67,0h.31V21.2a23.57,23.57,0,0,0-2.7-.17q-3.58,0-5.18,1.46c-1.05,1-1.64,2.62-1.75,4.94h-.33a52.08,52.08,0,0,0-3.71-8.62l-.16-.28Zm-5.68,6.09a9.06,9.06,0,0,0-5-1.39,12.64,12.64,0,0,0-1.34.08l.11,28,4.43,5.23H290.85l-.64-.75h13.33l-3.73-4.26v-29l1.5,0a11.82,11.82,0,0,1,3.83.43A3.22,3.22,0,0,1,306.88,24.62Zm7.43-4.34a31.81,31.81,0,0,0-4,8.13l-.11.28-.61-.53.08-.25c1.38-3.84,2.7-6.52,4-8l.14-.17Z"/><path class="cls-2" d="M315.17,18.53h13.08l-3.78,3.7v12a13.35,13.35,0,0,0,1.5.17V22.51l3-3,.56.5-2.86,2.84V34.45l.91.08c1.43.13,2.81.2,4.15.2a39.27,39.27,0,0,0,5-.28V21.65l-3.39-3.12h12.86l-3.85,3.7v29l3.37,3h-12.8L336.74,51V39.18a20.75,20.75,0,0,1-4.81.56c-1.56,0-3.18-.09-4.85-.25l-.38,0V51.23l4.59,5.29H316.9l-.73-.75h13.59L326,51.62V38.82l.81,0c2.45.19,4.22.28,5.31.28a13.6,13.6,0,0,0,4.65-.72v-1a41.72,41.72,0,0,1-6.09.39q-1.87,0-2.73-.09l-2.81-.25a5.09,5.09,0,0,0-.64,0v13.8l3.56,3H315.17L318.9,51V38.82a4.45,4.45,0,0,0-3.73,1.83l-.58-.27a5.86,5.86,0,0,1,4.31-2.26v-1A5.84,5.84,0,0,0,314,39.46l-.42-.28a7.11,7.11,0,0,1,5.34-4.73V21.92Zm32.2,1.56-2.83,2.75V51.23l4.62,5.29H334.71l-.7-.75h13.56l-3.73-4.21v-29l3.09-3.06Z"/><path class="cls-2" d="M380.47,18.53l-.45.53a28,28,0,0,0-4.51,8c-.18-.42-.32-.74-.42-.94q-1.53-3.34-3.28-4.32t-6.29-1c-1.39,0-3.06.05-5,.14v12.8h1.78V22.42c1.41-.13,2.76-.19,4-.19a13.45,13.45,0,0,1,5.2.75,7,7,0,0,1,3,2.92c-.26-.18-.44-.32-.56-.41a13.27,13.27,0,0,0-3.25-2.12,15.18,15.18,0,0,0-3.95-.33c-.6,0-1.66,0-3.18.11l-.58,0V33.75h5.12l3.59-4.92v12l-3.59-4.65h-7.6V51.79h1.78V37.48h6l.73.73H363V51.79a28.08,28.08,0,0,0,8.07-.81,6.8,6.8,0,0,0,3.76-3.17l1.47-2.54.34-.61a18.15,18.15,0,0,0,1.79,4.9A22.08,22.08,0,0,0,382,53.85h-31.2L355,50.62V38.21a10.14,10.14,0,0,0-4.23,1.44l-.39-.58A9.84,9.84,0,0,1,355,37.48V36.17l-.67-.05a7.53,7.53,0,0,0-5.17,2.09A5.57,5.57,0,0,1,355,33.75V21.87l-4.23-3.34ZM385.14,54l-1.45,2.51H353.3l-.44-.75h30.47l.95-1.76a21.43,21.43,0,0,1-5.65-7.9l.89.33a22.8,22.8,0,0,0,5.18,7.13ZM373.62,29.74V42.05l-.7-.37V29.38Zm8.18-9.26-.19.25a32.58,32.58,0,0,0-4.54,7.65l-.47-.58a33.2,33.2,0,0,1,4.81-7.91Z"/><path class="cls-2" d="M21.39,90.27a27.93,27.93,0,0,1,14.2-3.82A17.1,17.1,0,0,1,45.31,89c2.56,1.7,3.83,3.87,3.83,6.51a7.84,7.84,0,0,1-2.5,5.72,14.65,14.65,0,0,1-6.85,3.6A49.19,49.19,0,0,0,45,115.15a33.33,33.33,0,0,0,6.61,7.68l-.42.14a37,37,0,0,0-8.13,4l-.41.28-.14-.89a80.35,80.35,0,0,0-5-18.26l-.12-.28a20.29,20.29,0,0,1-5.15,1.42l-.22,0v10.41l4.9,5.23H22.56l-.44-.75H35.36l-4-4.29V108.66l.58-.08a18.51,18.51,0,0,0,5.32-1.25c-.11-.22-.18-.36-.2-.42l-.27-.81-.14-.33a49.84,49.84,0,0,1-6.52,1.09l-.3,0v12.41L33,122.64H20.67l3.62-3.32V110l-.23,0a27.47,27.47,0,0,0-2.92.81l-.22.08-.25-.56a20.12,20.12,0,0,1,1.92-.64l1.47-.36.23,0v-1.45a15,15,0,0,0-4.09.72l-.31.11a12.83,12.83,0,0,1,.56-1.8q0-.12.39-1.26a2.15,2.15,0,0,1,.08-.25q1.24.09,1.95.09a10,10,0,0,0,1.39-.09V91.66a16.62,16.62,0,0,0-2.64-1.31Zm8.41-.73v15a8.29,8.29,0,0,0,1.53-.14V90.71A14,14,0,0,1,35,90.3c3.62,0,6.08,1.18,7.38,3.56a14.89,14.89,0,0,0-3.62-2.3A9.94,9.94,0,0,0,35,90.94a12.07,12.07,0,0,0-3,.33v13.14l.31-.06c3.65-.67,6.37-1.72,8.14-3.16a6.9,6.9,0,0,0,2.66-5.61,6.37,6.37,0,0,0-2.4-5.1,9,9,0,0,0-6-2A10.25,10.25,0,0,0,29.8,89.54Zm13.44,16.7a33.33,33.33,0,0,0,6.21,11.22,29.34,29.34,0,0,0,7,6.15,43.91,43.91,0,0,0-12,5.18l-.25.16-.56-.44A39.57,39.57,0,0,1,55,123.39q-8-5.34-12.61-17.09l-.16-.47q8.5-3.24,8.51-9.86a10.75,10.75,0,0,0-2.2-6,8.4,8.4,0,0,1,2.82,6.51Q51.4,102.94,43.24,106.24Z"/><path class="cls-2" d="M71.91,86.57a13.06,13.06,0,0,1,10.81,5.12q4.05,5.11,4,13.69,0,8.1-4,12.91a13.24,13.24,0,0,1-10.73,4.82,14.51,14.51,0,0,1-9.47-3.4q-6.09-5-6.09-14.83,0-8.4,4.17-13.36A14,14,0,0,1,71.91,86.57Zm0,2.39q-9.4,0-9.41,16.53,0,15.29,9.27,15.28a7.15,7.15,0,0,0,6.57-4q2.25-4.05,2.25-11.84,0-8.82-2.17-12.3A7.27,7.27,0,0,0,71.91,89Zm8.88-1a13.77,13.77,0,0,1,6.29,6.56,23.85,23.85,0,0,1,2.31,10.75q0,9-4.55,14.47a14.77,14.77,0,0,1-12,5.51,14.19,14.19,0,0,1-8.85-3.2v-.14a14.24,14.24,0,0,0,8.66,2.53,14.36,14.36,0,0,0,11.46-5.26q4.48-5.25,4.48-13.44a25.93,25.93,0,0,0-2-10.66,14.65,14.65,0,0,0-5.8-6.82Zm-2.93,5.14-.47-.27a10.2,10.2,0,0,0-4.9-1.48q-7.32,0-7.32,14.39,0,10.52,4.54,13.94l-.25.28a10.81,10.81,0,0,1-4-5.19,25.85,25.85,0,0,1-1.18-8.7q0-15.43,8.13-15.44A6.15,6.15,0,0,1,77.86,93.13Z"/><path class="cls-2" d="M121.11,87.79l-.3.53a78.81,78.81,0,0,0-4.34,8.74l-.25.64-.37-.2a12,12,0,0,0-3-6.7,7.51,7.51,0,0,0-5.65-2.48,7.15,7.15,0,0,0-5.9,3.09q-3,3.84-3,13,0,7.91,2.74,12.39a8.5,8.5,0,0,0,7.61,4.48,7.94,7.94,0,0,0,6.22-2.6,12.67,12.67,0,0,0,2.77-7.45c.08-.78.39-1.17,1-1.17.72,0,1.08.61,1.08,1.81a14.46,14.46,0,0,1-1.22,5.6q-2.59,6.12-10.69,6.12a14.21,14.21,0,0,1-11.49-5.08q-4.26-5.07-4.26-13.73a20.42,20.42,0,0,1,4.42-13.39,13.68,13.68,0,0,1,11-5.4,20.08,20.08,0,0,1,7.09,1.53,10.08,10.08,0,0,0,3.46.81,4.53,4.53,0,0,0,2.64-.81Zm1,23.94q-.45,6.9-3.86,10.5t-9.53,3.61a14.62,14.62,0,0,1-8.66-2.87v-.22a15.35,15.35,0,0,0,8.6,2.34,12,12,0,0,0,9-3.54,11.07,11.07,0,0,0,2.51-3.87,21,21,0,0,0,1.08-5.68l.06-.64ZM113,92.61a7.8,7.8,0,0,0-4.78-2q-7.22,0-7.21,13.75a28.07,28.07,0,0,0,1.67,10.43q1.66,4.16,4.7,5.38v.28q-3.28-.68-5.24-5a27.19,27.19,0,0,1-2-11.09q0-14.4,7.91-14.39A6.73,6.73,0,0,1,113,92.24Zm10.11-3.48-.31.53A82.78,82.78,0,0,0,118,99.09l-.75-.36.3-.7q1.4-2.93,2.45-4.84l2.23-4,.28-.5Z"/><path class="cls-2" d="M125.26,86.93h13l-3.87,3.67v16.81l1.53-1.75V90.82l3.12-3,.41.61-2.86,2.79V104.8l8.63-10.3a6.6,6.6,0,0,0,1.86-4,2.75,2.75,0,0,0-1.06-2,5.24,5.24,0,0,0-2.56-1.26v-.28h14.67v.28q-4.82,1.17-10.38,7.84l-3.87,4.6,10.27,19.95,4.67,3H144.41l3.65-2.73-6.91-13.81-4.53,5.54v8l4.53,5.32H126.88l-.76-.75h13.36L136,119.91v-8.63l4.84-6-.61-1.22L134.42,111v8.65l3.37,3H125l3.81-3.26V90.24Zm34.29,2.53q-4.12.29-8.21,4.82l-4.87,5.39,9.82,19.93,7.88,5.32h-17.7l-.78-.75h16.12l-5.93-4L145.69,99.67l5.18-5.84c2.71-3,5.5-4.68,8.37-5Z"/><path class="cls-2" d="M202.52,77.13l.17.22-.28.31a60.07,60.07,0,0,0-8.21,10.52l-1.78,2.89-10.35,16.56v11.3l4,3.71H172.55l4-3.71v-11.3l-6.68-10.27-1.45-2.31a38.61,38.61,0,0,0-3.24-4.5,30.46,30.46,0,0,0-3.75-3.37l-.3-.25h14.05l-3.45,3.59,9.27,14,.89-1.42-8.27-12.55,2.93-2.79.58.45-2.53,2.34,7.71,11.88,6.23-9.82q2.7-4.29,2.7-6.4,0-1.79-2.36-4.07a54,54,0,0,0,13.3-4.81Zm1.26,1.67v1.14l-.28.28a37.49,37.49,0,0,0-4,4.45q-1.69,2.23-5,7.49L184.4,108v10.91l5,6H171.94l-.34-.75h16.28l-4.23-5.24v-11.1l10.27-16.2,1.62-2.56A45.64,45.64,0,0,1,203.78,78.8Z"/><path class="cls-2" d="M251.93,86.93l-3.82,3.87v28.58l3.43,3.26H238.73l3.87-3.26V100.65l-8.82,24.27h-2.67l-.23-.75h2.43l9.29-25.89V94l-10.35,28.59H230.3l-7.63-22.46v14.72a15.49,15.49,0,0,0,.39,4.18,7.44,7.44,0,0,0,1.84,2.7l2.51,3.17H212.85l-.5-.75H226l-1-1.53H212.57l.59-.31a10.25,10.25,0,0,0,4.07-3.44,11.56,11.56,0,0,0,1-5.49v-23l-3.67-3.45h14.39l-4,3.64,7.88,23.3,1-2.42L226.65,90.8l3.65-2.7.58.47L227.41,91l6.62,19.4,7.18-19.85-3.4-3.64Zm-31.51,6.59v20c0,3.06.29,5.16.88,6.32a5.42,5.42,0,0,0,3.63,2.5l-.25-.42a6.23,6.23,0,0,1-2.73-5.45V98Zm33.06-4.42-3.14,2.25v28.06l4.84,5.51H240.4l-.39-.75h13.47l-3.86-4.37V90.88l3.28-2.25Z"/><path class="cls-2" d="M271.74,86.57a13.06,13.06,0,0,1,10.81,5.12q4.05,5.11,4.05,13.69,0,8.1-4,12.91a13.22,13.22,0,0,1-10.73,4.82,14.48,14.48,0,0,1-9.46-3.4q-6.1-5-6.1-14.83,0-8.4,4.18-13.36A13.94,13.94,0,0,1,271.74,86.57Zm0,2.39q-9.4,0-9.41,16.53,0,15.29,9.27,15.28a7.13,7.13,0,0,0,6.57-4q2.25-4.05,2.25-11.84,0-8.82-2.17-12.3A7.27,7.27,0,0,0,271.74,89Zm8.88-1a13.77,13.77,0,0,1,6.29,6.56,23.85,23.85,0,0,1,2.31,10.75q0,9-4.55,14.47a14.76,14.76,0,0,1-12,5.51,14.14,14.14,0,0,1-8.84-3.2v-.14a14.21,14.21,0,0,0,8.65,2.53A14.38,14.38,0,0,0,284,119.21q4.47-5.25,4.48-13.44a25.76,25.76,0,0,0-2.05-10.66,14.65,14.65,0,0,0-5.8-6.82Zm-2.92,5.14-.48-.27a10.2,10.2,0,0,0-4.89-1.48q-7.32,0-7.32,14.39,0,10.52,4.53,13.94l-.25.28a10.79,10.79,0,0,1-4-5.19,25.82,25.82,0,0,1-1.19-8.7q0-15.43,8.13-15.44A6.15,6.15,0,0,1,277.7,93.13Z"/><path class="cls-2" d="M323.65,86.93l-5,4v18a55.71,55.71,0,0,1-.32,7.12,8.5,8.5,0,0,1-1.27,3.56q-2.4,3.57-9.3,3.57-7.29,0-10.18-3.57-2.31-2.8-2.31-10.77V90.32l-3.79-3.39h13.14l-3.79,3.7v18.2l.06,4.29q0,4.14,1.72,5.88c1.16,1.16,3.09,1.74,5.82,1.74q4.51,0,6.21-2.64Q316,116,316,108.92l.11-18-4.34-4Zm.94,1.89L320.81,92v17.28q0,8.49-1.34,11.08-2.73,5.22-10.66,5.23-6.84,0-10.29-3.42l.22.11,1,.55a17.24,17.24,0,0,0,8.8,2q7.68,0,10.18-4.85,1.33-2.61,1.34-10.52V91.63l4.15-3.39Zm-18.78-.39-2.73,2.76v20.68l0,1.92.87,3.53a11.27,11.27,0,0,0,2.42,2.56l.05.25a5.85,5.85,0,0,1-3.23-2.75,13.38,13.38,0,0,1-.89-5.6V90.91l3.15-3.06Z"/><path class="cls-2" d="M358.08,86.93a11.18,11.18,0,0,0-4.09,3q-1.39,2.11-1.4,6.38v26.33h-4.7l-13.14-25.5v15.11l0,1.26.33,4a6.15,6.15,0,0,0,2.53,4.11l.22.2q-3.84-1.27-3.84-8.21l0-2.62V95.78l-1.5-2.92v16q0,7.62,1,10t4.7,3.45l2.43,2.59H325.54l-.45-.75h14l-1.45-1.53h-13c2.27-.82,3.77-1.91,4.51-3.29s1.11-3.73,1.11-7.07V90l-3.7-3.09h14.09l-4,2.64,13.47,26.28v-3.34L338.59,90l3.9-2.65.53.53-3.45,2.34L350.14,111V96.53q0-4.84-.79-6.47t-3.91-3.13Zm1,2.06-.5.83a4.24,4.24,0,0,0-2.91,1.85,9.85,9.85,0,0,0-.76,4.55v28.7h-6l-.36-.75h5.59V96.5c0-2.61.34-4.44,1-5.47S357.12,89.32,359.05,89Z"/><path class="cls-2" d="M391.59,86.93l-.34.64-1.89,3.34a25.06,25.06,0,0,0-1.81,4.45l-.06.14-.27-.19-.09-.37a8.2,8.2,0,0,0-2.29-4.39,7.06,7.06,0,0,0-4.55-1.23c-.84,0-1.67,0-2.51.11h-.33V119.6l3.28,3H368l3.9-3.26V91.69l-2,0c-1.91,0-3.27.37-4.07,1.13a5.93,5.93,0,0,0-1.44,4h-.72q.3-3.25,1.68-4.53c.92-.86,2.44-1.28,4.55-1.28l1.67,0h.31V89.6a23.57,23.57,0,0,0-2.7-.17q-3.58,0-5.18,1.46c-1.06,1-1.64,2.62-1.75,4.94H362a52.08,52.08,0,0,0-3.71-8.62l-.16-.28ZM385.91,93a9.06,9.06,0,0,0-5-1.39,12.64,12.64,0,0,0-1.34.08l.11,28,4.43,5.23H369.88l-.64-.75h13.33l-3.73-4.26v-29l1.5,0a11.82,11.82,0,0,1,3.83.43A3.22,3.22,0,0,1,385.91,93Zm7.43-4.34a31.81,31.81,0,0,0-4,8.13l-.11.28-.61-.53.08-.25q2.07-5.76,4-8l.14-.17Z"/><path class="cls-2" d="M419.31,86.93l-2.9,3.28L421,102.35l1.11-.62-4.12-11,2.95-3.4.72.31-2.81,3.26,3.9,10.38.39-.31.92-.78a8.87,8.87,0,0,0,1.06-.94,19.28,19.28,0,0,0,2.22,5.67c-.54,0-.93,0-1.17,0a7.09,7.09,0,0,0-3.87.83l5,13.67,4.18,3.23H417.44l3.84-3.23-3.09-8.13a30.82,30.82,0,0,0-4.7,5.87l-.64-.16a35.41,35.41,0,0,1,4.9-6.1l.22-.28-.53-1.22a24.8,24.8,0,0,0-5.48,6.4l-.5-.81q-1.45-2.31-3.7-5.26l-.28-.33a20.05,20.05,0,0,0-2.15,7.74,6.65,6.65,0,0,0,.6,3,27.23,27.23,0,0,0,2.88,4l.62.78h-15l-.56-.75H408l-.48-.59a18.26,18.26,0,0,1-2.4-3.46,6.93,6.93,0,0,1-.58-2.91c0-1.89.78-4.71,2.32-8.46l-1.23-1.28c-.24.59-.55,1.46-.92,2.61l-.92,2.84a12.67,12.67,0,0,0-.75,3.79,5.68,5.68,0,0,0,.53,2.59,14.15,14.15,0,0,0,2.23,2.81l.5.53H392.39a16.6,16.6,0,0,0,6.31-5.54,43.77,43.77,0,0,0,4.6-10.75l.11-.39a7.68,7.68,0,0,0-4.25-1.53,19.92,19.92,0,0,0,2.36-4.76c.26.25.42.39.47.45l1.26,1.17a13.2,13.2,0,0,0,1.53,1.25l.5-1.22L405,101q-1.4-1.23-2.34-2l-.25-.19.44-.61a21.23,21.23,0,0,1,2.84,2.25l3.79-10.41-2.95-3.17Zm-8.13,5.7-4.43,11.69a39,39,0,0,1,3.65,4.29l1.28,1.78.28.36.28-.3.39-.48q.08-.1.3-.36a29.56,29.56,0,0,0-4.53-5.43l3.56-9.4Zm1.25,3.23-3.06,8.07a2.76,2.76,0,0,1,.28.34l1.14,1.28a28.5,28.5,0,0,1,2.34,3.11l.28.42a25.09,25.09,0,0,1,2.83-3Zm15.11,4.76a30.12,30.12,0,0,0,3.07,6.88l-.7-.09-2.25-.19c-1-.1-1.77-.14-2.23-.14l-.56,0,4.65,12.33,6.21,5.48H419.61l-.53-.75h14.78l-5-4.43-5-13.11a8.81,8.81,0,0,1,2.17-.25,26.21,26.21,0,0,1,3.34.25l-.33-.61a24.08,24.08,0,0,1-2.4-5.93Z"/><path class="cls-2" d="M436.67,86.93h13.2l-3.73,3.78v29l3.5,3h-13l3.87-3.2v-29Zm14.45,1.58-2.84,2.82v28.36l4.68,5.23H438.48l-.69-.75h13.52L447.5,120V91.07L450.65,88Z"/><path class="cls-2" d="M485.85,86.93a11.27,11.27,0,0,0-4.09,3q-1.39,2.11-1.39,6.38v26.33h-4.7l-13.14-25.5v15.11l0,1.26.34,4a6.15,6.15,0,0,0,2.53,4.11l.22.2q-3.84-1.27-3.84-8.21l0-2.62V95.78l-1.5-2.92v16q0,7.62,1,10c.67,1.58,2.23,2.73,4.7,3.45l2.42,2.59H453.32l-.45-.75h13.95l-1.45-1.53h-13c2.26-.82,3.77-1.91,4.51-3.29s1.11-3.73,1.11-7.07V90l-3.7-3.09H468.4l-3.95,2.64,13.47,26.28v-3.34L466.37,90l3.9-2.65.52.53-3.45,2.34L477.92,111V96.53q0-4.84-.79-6.47c-.53-1.09-1.84-2.13-3.91-3.13Zm1,2.06-.5.83a4.24,4.24,0,0,0-2.91,1.85,9.83,9.83,0,0,0-.77,4.55v28.7h-6l-.36-.75h5.59V96.5c0-2.61.34-4.44,1-5.47S484.9,89.32,486.83,89Z"/><path class="cls-2" d="M514.46,87.23a19,19,0,0,0-2.31,4.07,55.92,55.92,0,0,1-2.25,5.12l-.14.17c-.07-.21-.13-.37-.17-.48a24,24,0,0,0-1.28-3.48,6.33,6.33,0,0,0-1.5-1.86,8.45,8.45,0,0,0-5.76-2.26,7.49,7.49,0,0,0-5,1.66,5.21,5.21,0,0,0-2,4.16q0,4.68,7,6.37l4.7,1.15q10,2.41,10,10.6a9.91,9.91,0,0,1-3.44,7.67,12.2,12.2,0,0,1-8.5,3.1,29.76,29.76,0,0,1-7.1-1l-3.25-.81a14.34,14.34,0,0,0-3.26-.47,6.87,6.87,0,0,0-3.51,1.08l-.22-.39a37.09,37.09,0,0,0,4.84-9.91l.51.14a10.14,10.14,0,0,0,3.5,6.79,11.59,11.59,0,0,0,7.66,2.43,9.33,9.33,0,0,0,5.92-1.73,5.59,5.59,0,0,0,2.2-4.65,6.6,6.6,0,0,0-3.06-5.56q-2.19-1.56-9-2.9c-3.5-.69-6.05-1.83-7.62-3.42a10,10,0,0,1,.79-13.79,12.1,12.1,0,0,1,8.23-2.74,30,30,0,0,1,7.59,1.16,12.42,12.42,0,0,0,3,.56,5.91,5.91,0,0,0,3-1Zm0,17.76a9.3,9.3,0,0,1,3.79,7.85,11.62,11.62,0,0,1-4.12,9,14.5,14.5,0,0,1-10,3.69,22.16,22.16,0,0,1-5.43-.61l-4.45-1.09a13.72,13.72,0,0,0-3.34-.39,6.75,6.75,0,0,0-2.92.64l-.34-.8a6.93,6.93,0,0,1,2.95-.67,17.21,17.21,0,0,1,3.82.5l4.28,1a23.09,23.09,0,0,0,5.4.61,13.6,13.6,0,0,0,9.48-3.55,11.14,11.14,0,0,0,3.91-8.58,10.53,10.53,0,0,0-3-7.46Zm-23.29-1,.94.53q.93,1.64,5.38,2.73l4.48,1.11a30.48,30.48,0,0,1,6.08,2,4.65,4.65,0,0,1,2.16,2.49l-.2.11a8,8,0,0,0-2.71-2.11,35.2,35.2,0,0,0-5.61-1.64,43.48,43.48,0,0,1-8.07-2.41A4.12,4.12,0,0,1,491.17,104Zm3.48,9a9.46,9.46,0,0,0,5.51,7.09v.23q-5.18-1.52-6.26-7.18Zm13.41-19.07a9,9,0,0,0-6.57-3.25,5.08,5.08,0,0,0-3.5,1.22A4,4,0,0,0,496.6,95c0,1.37.93,2.78,2.81,4.23l.22.14-.14.22c-2.45-1.1-3.67-2.68-3.67-4.76a4.47,4.47,0,0,1,1.55-3.53A6,6,0,0,1,501.44,90a8.36,8.36,0,0,1,4.19,1,6.15,6.15,0,0,1,2.63,2.85Zm8.13-5.54-.25.42c-.76,1.28-1.41,2.51-2,3.67q-1.95,4.1-2.2,4.57l-.14.19L511,97l.11-.26c.53-1.22,1.31-2.82,2.33-4.78l1.9-3.68.14-.22Z"/><line class="cls-3" x1="0.75" y1="132" x2="522.75" y2="132"/><text/><line class="cls-3" x1="0.75" y1="72" x2="522.75" y2="72"/><line class="cls-3" x1="0.75" y1="8.5" x2="522.75" y2="8.5"/><circle class="cls-2" cx="10.75" cy="137" r="5"/><circle class="cls-2" cx="513.75" cy="8.5" r="5"/><circle class="cls-2" cx="513.75" cy="137" r="5"/><circle class="cls-2" cx="10.75" cy="8.5" r="5"/><line class="cls-3" x1="393.75" y1="31.5" x2="522.75" y2="31.5"/><line class="cls-3" x1="0.75" y1="43.63" x2="137.75" y2="43.63"/><line class="cls-3" y1="114.5" x2="15.5" y2="114.5"/><line class="cls-3" x1="514.98" y1="98.5" x2="521.52" y2="98.5"/></svg>