<svg id="Layer_1" data-name="Layer 1" xmlns="http://www.w3.org/2000/svg" viewBox="0 0 936 315.52"><defs><style>.cls-1{fill:#a58965;}.cls-1,.cls-3{stroke:#606161;}.cls-1,.cls-3,.cls-5{stroke-miterlimit:10;}.cls-2{fill:#40403f;}.cls-3,.cls-5{fill:none;}.cls-4{fill:#a67e4e;}.cls-5{stroke:#5b5b5b;}</style></defs><title>logo3</title><rect class="cls-1" x="1" y="0.5" width="522" height="149"/><path class="cls-2" d="M161.8,25.12,158,24.55v-2.4h13.06v2.4l-4.13.57V38h16.89V25.12L180,24.55v-2.4h12.86v2.4l-3.79.57V55l3.79.48v2.35H179.9V55.46l3.93-.48V41H166.94V55l4.17.48v2.35h-13.2V55.46L161.8,55Z"/><path class="cls-2" d="M201.16,34.87,197.51,34V31.46l7.44-.91h.1l1.1.86V55.08l3.84.38v2.35H197.27V55.46l3.89-.43Zm-.38-9.36A3.17,3.17,0,0,1,200,23.3a3.6,3.6,0,0,1,.93-2.54,3.32,3.32,0,0,1,2.57-1,3.07,3.07,0,0,1,2.4.86,3.22,3.22,0,0,1,.77,2.21,3.52,3.52,0,0,1-.94,2.59,3.47,3.47,0,0,1-2.61,1h0A2.94,2.94,0,0,1,200.78,25.51Z"/><path class="cls-2" d="M215.94,22l-3.74-.52V19.41l7.63-.91h0l1.06.72V42.69l-.1,2.83,11.09-11.47-3.6-.67V31.17h11.61v2.21l-3.79.67-7.05,6.87,9.12,14.16,3,.38v2.35H229.53V55.46l3-.43-6.77-11.14-4.94,4.9.1,2.45V55l3.4.43v2.35H212.92V55.46l3-.43Z"/><path class="cls-2" d="M245.15,54.55q-3-3.79-3.05-10.13a16.15,16.15,0,0,1,1.59-7.34,11.55,11.55,0,0,1,4.44-4.9,12.31,12.31,0,0,1,6.5-1.73,9.42,9.42,0,0,1,6.94,2.47Q264,35.39,264.18,40a22.78,22.78,0,0,1-.33,4.47H247.34a13.19,13.19,0,0,0,2.2,7.65,7,7,0,0,0,6,2.91,12.51,12.51,0,0,0,4-.7,10,10,0,0,0,3.24-1.65l.91,2.11a11.25,11.25,0,0,1-4.12,2.49A15.25,15.25,0,0,1,254,58.34Q248.21,58.34,245.15,54.55ZM258.9,41.92a14,14,0,0,0,.15-2.06,8.6,8.6,0,0,0-1.32-4.92,4.58,4.58,0,0,0-4-1.8,5.43,5.43,0,0,0-4.44,2c-1.1,1.34-1.74,3.6-1.9,6.76Z"/><path class="cls-2" d="M291.45,24.69l-8.26.29-1.68,10h-3.17l.82-12.86h29.9L309.64,35h-3L305,25l-8.3-.29V55l6.81.48v2.35H285.21V55.46l6.24-.48Z"/><path class="cls-2" d="M315.49,22l-4-.52V19.41l7.83-.91h.09l1.06.72V30.36l-.19,4.08a16.71,16.71,0,0,1,4.22-2.64,12.65,12.65,0,0,1,5.42-1.25,8.24,8.24,0,0,1,4.71,1.15A6.1,6.1,0,0,1,337,35.23a24.33,24.33,0,0,1,.67,6.41V55l3.36.43v2.35H329.51V55.46l3.12-.43V41.59a20.44,20.44,0,0,0-.38-4.44,4.09,4.09,0,0,0-1.44-2.4,5.25,5.25,0,0,0-3.17-.79,9.17,9.17,0,0,0-3.7.86,16.4,16.4,0,0,0-3.45,2V55l3.31.43v2.35H312.61V55.46l2.88-.38Z"/><path class="cls-2" d="M347.49,54.55q-3.06-3.79-3.05-10.13A16.28,16.28,0,0,1,346,37.08a11.68,11.68,0,0,1,4.44-4.9A12.35,12.35,0,0,1,357,30.45a9.41,9.41,0,0,1,6.93,2.47q2.48,2.47,2.62,7.08a21.88,21.88,0,0,1-.34,4.47H349.67a13.11,13.11,0,0,0,2.21,7.65,7,7,0,0,0,6,2.91,12.55,12.55,0,0,0,4-.7,10,10,0,0,0,3.24-1.65l.91,2.11a11.39,11.39,0,0,1-4.13,2.49,15.21,15.21,0,0,1-5.57,1.06Q350.54,58.34,347.49,54.55Zm13.75-12.63a15.49,15.49,0,0,0,.14-2.06,8.6,8.6,0,0,0-1.32-4.92,4.57,4.57,0,0,0-4-1.8,5.45,5.45,0,0,0-4.44,2c-1.1,1.34-1.73,3.6-1.89,6.76Z"/><path class="cls-2" d="M21.64,91.56a27.92,27.92,0,0,1,14.2-3.81,17.1,17.1,0,0,1,9.72,2.56c2.56,1.71,3.83,3.88,3.83,6.51a7.84,7.84,0,0,1-2.5,5.72,14.65,14.65,0,0,1-6.85,3.6,49.19,49.19,0,0,0,5.22,10.3,33.33,33.33,0,0,0,6.61,7.68l-.42.14a37.4,37.4,0,0,0-8.13,4l-.41.28-.14-.89a80.35,80.35,0,0,0-5-18.26l-.12-.28a19.88,19.88,0,0,1-5.15,1.42l-.22,0V121l4.9,5.23H22.81l-.44-.75H35.61l-4-4.29V110l.58-.09a18.51,18.51,0,0,0,5.32-1.25c-.11-.22-.18-.36-.2-.42l-.27-.8c0-.06-.07-.17-.14-.34a48.14,48.14,0,0,1-6.52,1.09l-.3,0v12.42l3.17,3.31H20.92l3.62-3.31v-9.35l-.23,0a27.47,27.47,0,0,0-2.92.81l-.22.08-.25-.55a15.64,15.64,0,0,1,1.92-.64l1.47-.36.23-.06v-1.45a14.68,14.68,0,0,0-4.09.73l-.31.11a12.8,12.8,0,0,1,.56-1.81c0-.08.16-.49.39-1.25a1.68,1.68,0,0,1,.08-.25c.83,0,1.48.08,1.95.08a12,12,0,0,0,1.39-.08V93a17.52,17.52,0,0,0-2.64-1.31Zm8.41-.72v15a8.29,8.29,0,0,0,1.53-.14V92a14,14,0,0,1,3.67-.42q5.43,0,7.38,3.56A15.2,15.2,0,0,0,39,92.85a10.15,10.15,0,0,0-3.73-.62,12.07,12.07,0,0,0-3,.33V105.7l.31-.06c3.65-.66,6.37-1.72,8.14-3.16a6.87,6.87,0,0,0,2.66-5.6A6.38,6.38,0,0,0,41,91.77a9,9,0,0,0-6-2A10.14,10.14,0,0,0,30.05,90.84Zm13.44,16.7a33.29,33.29,0,0,0,6.21,11.21,29.34,29.34,0,0,0,7,6.15,44.22,44.22,0,0,0-12,5.18l-.25.17L44,129.8a39.84,39.84,0,0,1,11.33-5.12q-8-5.34-12.61-17.09l-.16-.47Q51,103.9,51,97.27a10.78,10.78,0,0,0-2.2-6,8.42,8.42,0,0,1,2.82,6.51Q51.65,104.23,43.49,107.54Z"/><path class="cls-2" d="M72.16,87.86A13.09,13.09,0,0,1,83,93Q87,98.1,87,106.67q0,8.1-4,12.92A13.23,13.23,0,0,1,72.3,124.4,14.55,14.55,0,0,1,62.83,121q-6.09-5-6.09-14.84,0-8.4,4.17-13.36A14,14,0,0,1,72.16,87.86Zm0,2.39q-9.4,0-9.41,16.53,0,15.28,9.27,15.28a7.16,7.16,0,0,0,6.57-4c1.5-2.71,2.25-6.65,2.25-11.85q0-8.82-2.17-12.3A7.27,7.27,0,0,0,72.16,90.25Zm8.88-1a13.74,13.74,0,0,1,6.29,6.57,23.84,23.84,0,0,1,2.31,10.74q0,9-4.55,14.47a14.74,14.74,0,0,1-12,5.51,14.13,14.13,0,0,1-8.85-3.2v-.14a14.24,14.24,0,0,0,8.66,2.54,14.4,14.4,0,0,0,11.46-5.26q4.48-5.26,4.48-13.45a26,26,0,0,0-2-10.66A14.7,14.7,0,0,0,81,89.58Zm-2.93,5.15-.47-.28a10.32,10.32,0,0,0-4.9-1.48q-7.32,0-7.32,14.39,0,10.53,4.54,14l-.25.28a10.79,10.79,0,0,1-4-5.2,25.82,25.82,0,0,1-1.18-8.69q0-15.45,8.13-15.45A6.15,6.15,0,0,1,78.11,94.43Z"/><path class="cls-2" d="M121.36,89.08l-.3.53a79.69,79.69,0,0,0-4.34,8.74l-.25.64-.37-.19a12.08,12.08,0,0,0-3-6.71,7.51,7.51,0,0,0-5.65-2.48,7.15,7.15,0,0,0-5.9,3.09q-3,3.84-3,13,0,7.9,2.74,12.38a8.5,8.5,0,0,0,7.61,4.48,7.91,7.91,0,0,0,6.22-2.6,12.64,12.64,0,0,0,2.77-7.44c.08-.78.39-1.17,1-1.17.72,0,1.08.6,1.08,1.81a14.41,14.41,0,0,1-1.22,5.59q-2.59,6.12-10.69,6.12a14.21,14.21,0,0,1-11.49-5.08q-4.26-5.07-4.26-13.73A20.42,20.42,0,0,1,96.73,92.7a13.68,13.68,0,0,1,11-5.4,20.08,20.08,0,0,1,7.09,1.53,10.08,10.08,0,0,0,3.46.81,4.53,4.53,0,0,0,2.64-.81Zm1,23.94q-.45,6.9-3.86,10.51t-9.53,3.6a14.62,14.62,0,0,1-8.66-2.87V124a15.35,15.35,0,0,0,8.6,2.34,12,12,0,0,0,9-3.54,11.13,11.13,0,0,0,2.51-3.86,21.06,21.06,0,0,0,1.08-5.68l.06-.64ZM113.29,93.9a7.78,7.78,0,0,0-4.78-2q-7.22,0-7.21,13.75A28,28,0,0,0,103,116c1.11,2.77,2.68,4.57,4.7,5.38v.28c-2.19-.44-3.94-2.13-5.24-5a27.19,27.19,0,0,1-2-11.09q0-14.39,7.91-14.39a6.7,6.7,0,0,1,4.92,2.37Zm10.11-3.48-.31.53a82.78,82.78,0,0,0-4.84,9.43l-.75-.36.3-.69q1.4-2.92,2.45-4.85l2.23-4,.28-.5Z"/><path class="cls-2" d="M125.51,88.22h13l-3.87,3.67v16.82L136.2,107V92.12l3.12-3,.41.62-2.86,2.78v13.61l8.63-10.3a6.57,6.57,0,0,0,1.86-4,2.73,2.73,0,0,0-1.06-2,5.26,5.26,0,0,0-2.56-1.27v-.28h14.67v.28q-4.82,1.17-10.38,7.85l-3.87,4.59,10.27,20,4.67,3H144.66l3.65-2.73-6.91-13.8-4.53,5.54v8l4.53,5.31H127.13l-.76-.75h13.36l-3.53-4.26v-8.63l4.84-5.95-.61-1.23-5.76,6.85v8.66l3.37,3H125.29l3.81-3.26V91.53Zm34.29,2.53q-4.12.28-8.21,4.82l-4.87,5.4,9.82,19.93,7.88,5.31h-17.7l-.78-.75h16.12l-5.93-4L145.94,101l5.18-5.85q4.06-4.53,8.37-5Z"/><path class="cls-2" d="M202.77,78.42l.17.23-.28.3a60.07,60.07,0,0,0-8.21,10.52l-1.78,2.9-10.35,16.56v11.3l4,3.7H172.8l4-3.7v-11.3l-6.68-10.27-1.45-2.31a38.91,38.91,0,0,0-3.24-4.51,30.46,30.46,0,0,0-3.75-3.37l-.3-.25h14.05L172,91.81l9.27,14,.89-1.42-8.27-12.55L176.81,89l.58.44-2.53,2.34,7.71,11.89,6.23-9.83q2.7-4.29,2.7-6.4,0-1.78-2.36-4.06a54,54,0,0,0,13.3-4.82ZM204,80.09v1.14l-.28.28a36.78,36.78,0,0,0-4,4.46q-1.69,2.22-5,7.48l-10.08,15.87v10.91l5,6H172.19l-.34-.75h16.28l-4.23-5.23V109.12l10.27-16.2,1.62-2.56A45.87,45.87,0,0,1,204,80.09Z"/><path class="cls-2" d="M252.18,88.22l-3.82,3.87v28.58l3.43,3.26H239l3.87-3.26V101.94L234,126.21h-2.67l-.23-.75h2.43l9.29-25.88V95.32L232.5,123.9h-1.95l-7.63-22.46v14.72a15.49,15.49,0,0,0,.39,4.18,7.27,7.27,0,0,0,1.84,2.7l2.51,3.17H213.1l-.5-.75h13.66l-1-1.53H212.82l.59-.31a10.24,10.24,0,0,0,4.07-3.43,11.61,11.61,0,0,0,1-5.5v-23l-3.67-3.45h14.39l-4,3.65L233,115.16l1-2.42L226.9,92.09l3.65-2.7.58.47-3.47,2.45,6.62,19.4,7.18-19.84-3.4-3.65Zm-31.51,6.6v20q0,4.59.88,6.32a5.42,5.42,0,0,0,3.63,2.5l-.25-.41a6.24,6.24,0,0,1-2.73-5.46V99.24Zm33.06-4.43-3.14,2.26V120.7l4.84,5.51H240.65l-.39-.75h13.47l-3.86-4.37V92.17l3.28-2.25Z"/><path class="cls-2" d="M272,87.86A13.09,13.09,0,0,1,282.8,93q4.05,5.11,4.05,13.69,0,8.1-4,12.92a13.22,13.22,0,0,1-10.73,4.81,14.53,14.53,0,0,1-9.46-3.39q-6.1-5-6.1-14.84,0-8.4,4.18-13.36A13.94,13.94,0,0,1,272,87.86Zm0,2.39q-9.4,0-9.41,16.53,0,15.28,9.27,15.28a7.14,7.14,0,0,0,6.57-4c1.5-2.71,2.25-6.65,2.25-11.85q0-8.82-2.17-12.3A7.27,7.27,0,0,0,272,90.25Zm8.88-1a13.74,13.74,0,0,1,6.29,6.57,23.84,23.84,0,0,1,2.31,10.74q0,9-4.55,14.47a14.73,14.73,0,0,1-12,5.51,14.09,14.09,0,0,1-8.84-3.2v-.14a14.21,14.21,0,0,0,8.65,2.54,14.41,14.41,0,0,0,11.47-5.26q4.47-5.26,4.48-13.45a25.79,25.79,0,0,0-2.05-10.66,14.64,14.64,0,0,0-5.8-6.82ZM278,94.43l-.48-.28a10.31,10.31,0,0,0-4.89-1.48q-7.32,0-7.32,14.39,0,10.53,4.53,14l-.25.28a10.77,10.77,0,0,1-4-5.2,25.79,25.79,0,0,1-1.19-8.69q0-15.45,8.13-15.45A6.16,6.16,0,0,1,278,94.43Z"/><path class="cls-2" d="M323.9,88.22l-5,4v18a55.9,55.9,0,0,1-.32,7.13,8.61,8.61,0,0,1-1.27,3.56q-2.4,3.55-9.3,3.56-7.29,0-10.18-3.56-2.31-2.82-2.31-10.77V91.62l-3.79-3.4h13.14l-3.79,3.7v18.2l.06,4.29q0,4.16,1.72,5.89C304,121.46,306,122,308.7,122q4.51,0,6.21-2.65,1.36-2.15,1.36-9.18l.11-18-4.34-4Zm.94,1.89-3.78,3.15v17.28q0,8.49-1.34,11.08-2.73,5.23-10.66,5.23-6.84,0-10.29-3.42l.22.11,1,.56a17.34,17.34,0,0,0,8.8,2q7.68,0,10.18-4.84c.89-1.75,1.34-5.25,1.34-10.52V92.92l4.15-3.39Zm-18.78-.39-2.73,2.76v20.68l0,1.92.87,3.53a11.27,11.27,0,0,0,2.42,2.56l.05.25a5.82,5.82,0,0,1-3.23-2.75,13.38,13.38,0,0,1-.89-5.6V92.2l3.15-3.06Z"/><path class="cls-2" d="M358.33,88.22a11.29,11.29,0,0,0-4.09,3q-1.39,2.11-1.4,6.37v26.33h-4.7L335,98.44v15.11l0,1.25.33,4a6.17,6.17,0,0,0,2.53,4.12l.22.19q-3.84-1.28-3.84-8.21l0-2.61V97.07l-1.5-2.92v16c0,5.08.33,8.42,1,10s2.24,2.73,4.7,3.45l2.43,2.59H325.79l-.45-.75h14l-1.45-1.53h-13q3.4-1.23,4.51-3.28c.74-1.38,1.11-3.73,1.11-7.07V91.31l-3.7-3.09h14.09l-4,2.64,13.47,26.28V113.8L338.84,91.31l3.9-2.64.53.52-3.45,2.34,10.57,20.77V97.82c0-3.23-.26-5.38-.79-6.47s-1.83-2.13-3.91-3.13Zm1,2.06-.5.84A4.21,4.21,0,0,0,355.89,93a9.83,9.83,0,0,0-.76,4.55v28.69h-6l-.36-.75h5.59V97.79q0-3.92,1-5.46A5.55,5.55,0,0,1,359.3,90.28Z"/><path class="cls-2" d="M391.84,88.22l-.34.64-1.89,3.34a25.06,25.06,0,0,0-1.81,4.45l-.06.14-.27-.19-.09-.36a8.23,8.23,0,0,0-2.29-4.4,7.06,7.06,0,0,0-4.55-1.23c-.84,0-1.67,0-2.51.12h-.33V120.9l3.28,3H368.26l3.9-3.26V93l-2,0a4.61,4.61,0,0,0-5.51,5.1H364q.3-3.27,1.68-4.54c.92-.85,2.44-1.28,4.55-1.28l1.67,0h.31V90.89a23.47,23.47,0,0,0-2.7-.16c-2.39,0-4.12.48-5.18,1.46s-1.64,2.62-1.75,4.94h-.33a51.79,51.79,0,0,0-3.71-8.63l-.16-.28Zm-5.68,6.1a9,9,0,0,0-5-1.4,10.52,10.52,0,0,0-1.34.09l.11,28,4.43,5.23H370.13l-.64-.75h13.33l-3.73-4.26v-29l1.5,0a12.12,12.12,0,0,1,3.83.43A3.21,3.21,0,0,1,386.16,94.32ZM393.59,90a32.16,32.16,0,0,0-4,8.13l-.11.28-.61-.53.08-.25q2.07-5.76,4-8l.14-.16Z"/><path class="cls-2" d="M419.56,88.22l-2.9,3.28,4.57,12.14,1.11-.61-4.12-11,2.95-3.39.72.3-2.81,3.26,3.9,10.38.39-.31.92-.78a8.87,8.87,0,0,0,1.06-.94,19.34,19.34,0,0,0,2.22,5.68q-.81-.06-1.17-.06a7,7,0,0,0-3.87.84l5,13.66,4.18,3.23H417.69l3.84-3.23-3.09-8.13a30.55,30.55,0,0,0-4.7,5.88l-.64-.17a35.41,35.41,0,0,1,4.9-6.1l.22-.27-.53-1.23a24.8,24.8,0,0,0-5.48,6.4l-.5-.8c-1-1.54-2.2-3.3-3.7-5.26l-.28-.34a20.05,20.05,0,0,0-2.15,7.74,6.59,6.59,0,0,0,.6,3,27.23,27.23,0,0,0,2.88,4.05l.62.78h-15l-.56-.75h14.17l-.48-.58a18.26,18.26,0,0,1-2.4-3.47,6.9,6.9,0,0,1-.58-2.91c0-1.89.78-4.71,2.32-8.46l-1.23-1.28c-.24.59-.55,1.47-.92,2.62l-.92,2.84a12.62,12.62,0,0,0-.75,3.78,5.68,5.68,0,0,0,.53,2.59,13.87,13.87,0,0,0,2.23,2.81l.5.53H392.64a16.52,16.52,0,0,0,6.31-5.54,43.85,43.85,0,0,0,4.6-10.74l.11-.39a7.53,7.53,0,0,0-4.25-1.53,20.11,20.11,0,0,0,2.36-4.76l.47.44,1.26,1.17a12.24,12.24,0,0,0,1.53,1.25l.5-1.22-.33-.28c-.93-.81-1.71-1.47-2.34-2l-.25-.2.44-.61a21.23,21.23,0,0,1,2.84,2.25l3.79-10.41-2.95-3.17Zm-8.13,5.71L407,105.62a38,38,0,0,1,3.65,4.28l1.28,1.78.28.36a1.78,1.78,0,0,0,.28-.3l.39-.47a3.45,3.45,0,0,1,.3-.37,29.17,29.17,0,0,0-4.53-5.42l3.56-9.41Zm1.25,3.22-3.06,8.08a2.3,2.3,0,0,1,.28.33l1.14,1.28a28.82,28.82,0,0,1,2.34,3.12l.28.42a23.65,23.65,0,0,1,2.83-3Zm15.11,4.76a29.93,29.93,0,0,0,3.07,6.88c-.41-.06-.64-.08-.7-.08l-2.25-.2c-1-.09-1.77-.14-2.23-.14l-.56,0,4.65,12.33,6.21,5.48H419.86l-.53-.75h14.78l-5-4.43-5-13.1a8.35,8.35,0,0,1,2.17-.25,24.5,24.5,0,0,1,3.34.25l-.33-.62a24.18,24.18,0,0,1-2.4-5.92Z"/><path class="cls-2" d="M436.92,88.22h13.2L446.39,92v29l3.5,3h-13l3.87-3.2v-29Zm14.45,1.59-2.84,2.81V121l4.68,5.23H438.73l-.69-.75h13.52l-3.81-4.2V92.37l3.15-3.12Z"/><path class="cls-2" d="M486.1,88.22a11.38,11.38,0,0,0-4.09,3q-1.39,2.11-1.39,6.37v26.33h-4.7L462.78,98.44v15.11l0,1.25.34,4a6.17,6.17,0,0,0,2.53,4.12l.22.19q-3.84-1.28-3.84-8.21l0-2.61V97.07l-1.5-2.92v16c0,5.08.33,8.42,1,10s2.23,2.73,4.7,3.45l2.42,2.59H453.57l-.45-.75h13.95l-1.45-1.53h-13c2.26-.82,3.77-1.91,4.51-3.28s1.11-3.73,1.11-7.07V91.31l-3.7-3.09h14.08l-3.95,2.64,13.47,26.28V113.8L466.62,91.31l3.9-2.64.52.52-3.45,2.34,10.58,20.77V97.82c0-3.23-.26-5.38-.79-6.47s-1.84-2.13-3.91-3.13Zm1,2.06-.5.84A4.21,4.21,0,0,0,483.67,93a9.8,9.8,0,0,0-.77,4.55v28.69h-6l-.36-.75h5.59V97.79q0-3.92,1-5.46C483.84,91.3,485.15,90.61,487.08,90.28Z"/><path class="cls-2" d="M514.71,88.53a19,19,0,0,0-2.31,4.06,55.92,55.92,0,0,1-2.25,5.12l-.14.17c-.07-.21-.13-.36-.17-.47a24,24,0,0,0-1.28-3.48,6.5,6.5,0,0,0-1.5-1.87,8.44,8.44,0,0,0-5.76-2.25,7.48,7.48,0,0,0-5,1.65,5.23,5.23,0,0,0-2,4.16q0,4.68,7,6.38l4.7,1.14q10,2.42,10,10.6a9.89,9.89,0,0,1-3.44,7.67,12.2,12.2,0,0,1-8.5,3.1,29.76,29.76,0,0,1-7.1-1l-3.25-.81a14.93,14.93,0,0,0-3.26-.47,6.87,6.87,0,0,0-3.51,1.08l-.22-.38a37.23,37.23,0,0,0,4.84-9.91l.51.14a10.19,10.19,0,0,0,3.5,6.79,11.64,11.64,0,0,0,7.66,2.42,9.33,9.33,0,0,0,5.92-1.73,5.59,5.59,0,0,0,2.2-4.65,6.6,6.6,0,0,0-3.06-5.56q-2.19-1.56-9-2.9c-3.5-.68-6.05-1.82-7.62-3.42a10,10,0,0,1,.79-13.79,12.1,12.1,0,0,1,8.23-2.74,29.66,29.66,0,0,1,7.59,1.17,12.79,12.79,0,0,0,3,.55,6,6,0,0,0,3-.94Zm0,17.75a9.3,9.3,0,0,1,3.79,7.85,11.63,11.63,0,0,1-4.12,9,14.54,14.54,0,0,1-10,3.68,22.16,22.16,0,0,1-5.43-.61l-4.45-1.08a13.72,13.72,0,0,0-3.34-.39,6.61,6.61,0,0,0-2.92.64l-.34-.81a6.93,6.93,0,0,1,2.95-.67,17.21,17.21,0,0,1,3.82.5l4.28,1a23.09,23.09,0,0,0,5.4.61,13.63,13.63,0,0,0,9.48-3.54,11.18,11.18,0,0,0,3.91-8.59,10.53,10.53,0,0,0-3-7.46Zm-23.29-1,.94.53c.62,1.1,2.41,2,5.38,2.73l4.48,1.11a31.17,31.17,0,0,1,6.08,2,4.65,4.65,0,0,1,2.16,2.49l-.2.12a8,8,0,0,0-2.71-2.12,36.32,36.32,0,0,0-5.61-1.64,43.48,43.48,0,0,1-8.07-2.41A4.12,4.12,0,0,1,491.42,105.28Zm3.48,9a9.5,9.5,0,0,0,5.51,7.1v.22q-5.18-1.5-6.26-7.18Zm13.41-19.07A9,9,0,0,0,501.74,92a5.13,5.13,0,0,0-3.5,1.22,4,4,0,0,0-1.39,3.12c0,1.37.93,2.78,2.81,4.23l.22.14-.14.22q-3.67-1.64-3.67-4.76a4.48,4.48,0,0,1,1.56-3.53,5.92,5.92,0,0,1,4.06-1.37,8.36,8.36,0,0,1,4.19,1,6.2,6.2,0,0,1,2.63,2.85Zm8.13-5.53-.25.41a40.44,40.44,0,0,0-2,3.68c-1.3,2.72-2,4.25-2.2,4.56l-.14.2-.66-.28.11-.25c.53-1.23,1.31-2.82,2.33-4.79l1.9-3.67.14-.23Z"/><line class="cls-3" x1="1" y1="132" x2="523" y2="132"/><text/><line class="cls-3" x1="1" y1="72" x2="523" y2="72"/><line class="cls-3" x1="1" y1="9.5" x2="523" y2="9.5"/><circle class="cls-2" cx="11" cy="137" r="5"/><circle class="cls-2" cx="514" cy="8.5" r="5"/><circle class="cls-2" cx="514" cy="137" r="5"/><circle class="cls-2" cx="11" cy="8.5" r="5"/><line class="cls-3" x1="480.89" y1="82.7" x2="523.46" y2="82.7"/><line class="cls-3" x1="1" y1="99.81" x2="16" y2="99.81"/><line class="cls-3" x1="412.79" y1="27.5" x2="523.46" y2="27.5"/><line class="cls-3" y1="48.5" x2="137.26" y2="48.5"/><rect class="cls-4" x="251" y="149.5" width="38" height="166"/><line class="cls-5" x1="261.24" y1="196.57" x2="262.76" y2="154.03"/><line class="cls-5" x1="280.67" y1="246.02" x2="283.43" y2="169.49"/><line class="cls-5" x1="265.85" y1="277.31" x2="267.92" y2="219.65"/><line class="cls-5" x1="276.15" y1="315.5" x2="277.67" y2="272.96"/></svg>